<svg xmlns="http://www.w3.org/2000/svg">
  <title>LiveView Native</title>
  <symbol id="technology" viewBox="0 0 201.01199 110.87696" fill="var(--accent-color)">
    <defs id="defs611"></defs>
    <g id="layer1" transform="translate(-4.3568213,-91.138)">
      <path d="m 205.36882,91.138 h -52.15843 l -18.25231,31.61542 H 74.767555 L 56.515245,91.138 H 4.3568213 L 22.609128,122.75342 H 5.0163913 v 23.53935 H 36.200471 l 24.854291,43.04796 c 4.514397,7.81854 12.92549,12.67423 21.954284,12.67423 h 43.709634 c 0.0146,0 0.0293,0 0.0419,0 0.0146,0 0.0293,0 0.0419,0 v 0 c 8.99528,-0.0315 17.3687,-4.88082 21.86843,-12.67423 l 24.85431,-43.04796 h 31.19664 V 122.75342 H 187.1165 Z M 12.259105,139.05005 v -9.05391 h 14.531492 l 5.226312,9.05391 H 12.257011 Z m 89.806295,55.7222 H 83.006949 c -6.449138,0 -12.456459,-3.46956 -15.681024,-9.05392 l -50.4247,-87.337617 h 35.432551 l 52.516464,90.960017 c 1.16629,2.02059 2.59432,3.84017 4.22545,5.43152 h -7.0082 z M 88.358894,146.29277 h 33.007836 l -16.50392,28.58557 z M 197.4791,129.99614 v 9.05391 H 84.177424 l -5.226311,-9.05391 z" id="path618" style="stroke-width: 0.209387"></path>
    </g>
  </symbol>
</svg>